<?xml version="1.0" encoding="UTF-8"?>
<svg xmlns="http://www.w3.org/2000/svg" version="1.1" viewBox="0 0 1752.3 397.1">
  <defs>
    <style>
      .cls-1 {
        fill: #c1c0c0;
      }

      .cls-2 {
        fill: #fff;
      }

      .cls-3 {
        display: none;
      }
    </style>
  </defs>
  <!-- Generator: Adobe Illustrator 28.7.1, SVG Export Plug-In . SVG Version: 1.2.0 Build 142)  -->
  <g>
    <g id="Layer_1">
      <g>
        <path class="cls-2" d="M899.5,103.3v190.3c0,1.5-1.3,2.8-2.8,2.8h-82.5c-.6,0-1.2-.2-1.7-.6l-138.3-110.4c-1.9-1.5-4.5-.1-4.5,2.2v78.5c0,.7-.4,1.4-.8,2l-27.4,27.4c-.5.5-1.3.8-2,.8h-44.6c-1.5,0-2.8-1.3-2.8-2.8v-124.2c0-1.5-1.3-2.8-2.8-2.8h-49.9c-1.5,0-2.8,1.3-2.8,2.8v124.2c0,1.5-1.3,2.8-2.8,2.8h-72c-1.5,0-2.8-1.3-2.8-2.8v-90.6c0-.7.4-1.5.8-2l29.8-29.8,4.8-4.8h-90.3c-1.5,0-2.8,1.3-2.8,2.8v124.3c0,1.5-1.3,2.8-2.8,2.8h-71.9c-1.5,0-2.8-1.3-2.8-2.8v-60.7c0-1.5-1.3-2.8-2.8-2.8h-139.6c-1.5,0-2.8,1.3-2.8,2.8v60.7c0,1.5-1.3,2.8-2.8,2.8h-71.9c-1.5,0-2.8-1.3-2.8-2.8V103.3c0-1.5,1.3-2.8,2.8-2.8h71.9c1.5,0,2.8,1.3,2.8,2.8v58c0,1.5,1.3,2.8,2.8,2.8h139.6c1.5,0,2.8-1.3,2.8-2.8v-58c0-1.5,1.3-2.8,2.8-2.8h352.9c.6,0,1.2.2,1.7.6l136.3,107.4c1.9,1.5,4.6.2,4.6-2.1v-77.8c0-.7.4-1.5.8-2l25.2-25.2c.5-.6,1.3-.8,2-.8h46.8c1.5,0,2.8,1.3,2.8,2.8Z"/>
        <g>
          <path class="cls-2" d="M911.4,119.4v-15.4h-6v-2.9h15.5v2.9h-6v15.4h-3.4Z"/>
          <path class="cls-2" d="M923.4,119.4v-18.2h2.8l8,13.3h-1.5l7.8-13.3h2.8v18.2c0,0-3.2,0-3.2,0v-13.2h.6l-6.6,11.1h-1.5l-6.8-11.1h.8v13.2h-3.2Z"/>
        </g>
      </g>
      <g>
        <path class="cls-2" d="M1150.7,153.1h-28.5v29.4h-13.5v-70h13.5v27.6h28.5v-27.6h13.5v70h-13.5v-29.4Z"/>
        <path class="cls-2" d="M1176.2,153.5v-12c0-19.1,12-29.9,29.6-29.9s29.6,10.8,29.6,29.9v12c0,19.1-12,29.9-29.6,29.9s-29.6-10.8-29.6-29.9ZM1205.8,170.9c10,0,16.1-6,16.1-17.4v-12c0-11.4-6.1-16.9-16.1-16.9s-16.1,5.5-16.1,16.9v12c0,11.4,6.1,17.4,16.1,17.4Z"/>
        <path class="cls-2" d="M1260.4,115v67.5h-13v-70h24.9l12,67.5,12-67.5h24.9v70h-13v-67.5l-11.2,67.5h-25.4l-11.2-67.5Z"/>
        <path class="cls-2" d="M1337.2,112.5h47v12.5h-33.5v15.3h30.4v12.2h-30.4v17.5h33.5v12.5h-47v-70Z"/>
        <path class="cls-2" d="M1410,125h-20.3v-12.5h54.2v12.5h-20.4v57.5h-13.5v-57.5Z"/>
        <path class="cls-2" d="M1453.4,112.5h47v12.5h-33.5v15.3h30.4v12.2h-30.4v17.5h33.5v12.5h-47v-70Z"/>
        <path class="cls-2" d="M1551,166.4h-27.6l-4.3,16.1h-13.7l18.8-70h26.2l18.6,70h-13.7l-4.3-16.1ZM1547.5,153.4l-10.3-38.4-10.3,38.4h20.6Z"/>
        <path class="cls-2" d="M1591,115v67.5h-13v-70h24.9l12,67.5,12-67.5h24.9v70h-13v-67.5l-11.2,67.5h-25.4l-11.2-67.5Z"/>
        <path class="cls-2" d="M1108.7,212.5h25.8l18,68v-68h13v70h-26.4l-17.4-67.5v67.5h-13v-70Z"/>
        <path class="cls-2" d="M1181.5,212.5h47v12.5h-33.5v15.3h30.4v12.2h-30.4v17.5h33.5v12.5h-47v-70Z"/>
        <path class="cls-2" d="M1254.3,225h-20.3v-12.5h54.2v12.5h-20.4v57.5h-13.5v-57.5Z"/>
        <path class="cls-2" d="M1335,215l-7,67.5h-26l-11.3-70h13.8l10.5,67.5,7-67.5h26l7,67.5,10.5-67.5h13.8l-11.3,70h-26l-7-67.5Z"/>
        <path class="cls-2" d="M1384.3,253.5v-12c0-19.1,12-29.9,29.6-29.9s29.6,10.8,29.6,29.9v12c0,19.1-12,29.9-29.6,29.9s-29.6-10.8-29.6-29.9ZM1413.9,270.9c10,0,16.1-6,16.1-17.4v-12c0-11.4-6.1-16.9-16.1-16.9s-16.1,5.5-16.1,16.9v12c0,11.4,6.1,17.4,16.1,17.4Z"/>
        <path class="cls-2" d="M1455.5,212.5h29.7c13,0,21.2,8.7,21.2,20.6s-6.9,20.8-21.2,20.8h-13.9l38.8,28.6h-22.3l-19-14.5v14.5h-13.3v-70ZM1482.7,241.4c6.5,0,9.7-2.1,9.7-8.2s-3.2-8.2-9.7-8.2h-13.9v16.4h13.9Z"/>
        <path class="cls-2" d="M1534.1,261.6v20.9h-13.5v-70h13.5v20.1l21.9-20.1h17.8l-37.2,34.1,38.2,35.9h-18.7l-22-20.9Z"/>
      </g>
      <rect class="cls-2" x="1000" y="85.4" width="6" height="226.7"/>
    </g>
    <g id="Layer_2" class="cls-3">
      <path class="cls-1" d="M98.5,206.3c-1.3-2.7-3.3-4.9-5.7-6.5-2.5-1.8-5.6-3-9.2-3.9-3.6-.9-7.8-1.5-12.4-2l-42.5-3.5c-3.4-.5-6.3-.9-8.6-1.5-2.3-.5-4.1-1.4-5.3-2.7-1.3-1.3-1.9-3.2-1.9-5.6s.5-3.6,1.3-5c.8-1.3,2.3-2.5,4.6-3.3s5.4-1.4,9.5-1.8c4.2-.3,9.6-.6,16.1-.6s8.4.2,12.8.5c4.6.2,9.1.6,13.7.9,4.6.5,8.9.9,13,1.5,1.2.1,2.3.3,3.4.6l9.5-9.5c-3.4-.7-7.1-1.4-11.2-2-4.2-.6-8.6-1.1-13.1-1.5-4.6-.5-9-.8-13.2-1.1-4.3-.2-8.3-.3-12-.3-11.4,0-20.7.7-27.6,2.1-6.9,1.5-11.9,3.9-14.9,7-3.2,3.3-4.7,7.5-4.7,12.6s1.2,8.5,3.3,11.3c2.2,2.8,5.4,5,9.8,6.4,4.3,1.5,9.8,2.5,16.2,2.9l43.5,3.7c3.2.3,5.8.8,8.1,1.4,2.1.7,3.9,1.6,4.9,3,1.2,1.4,1.6,3.5,1.6,6.3s-.3,3.6-1.2,5c-.8,1.4-2.3,2.6-4.6,3.4-2.2.9-5.4,1.5-9.3,2-4.1.3-9.5.6-16,.6s-9.2-.1-13.9-.5c-4.8-.2-9.5-.7-14.1-1.2-4.8-.6-9.2-1.2-13.4-1.9-1.3-.1-2.5-.4-3.6-.6l-9.7,9.7c4.3.8,9.2,1.8,15.1,2.6,5.8.9,11.9,1.6,18.3,2.1,6.3.5,12.5.7,18.2.7,9.2,0,16.8-.5,22.9-1.3,6.1-.8,11-2.1,14.5-3.9,3.6-1.8,6.2-4,7.6-6.7,1.5-2.7,2.3-6,2.3-9.8s-.7-7.4-2-10Z"/>
      <path class="cls-1" d="M998,206.3c-1.3-2.7-3.3-4.9-5.7-6.5-2.5-1.8-5.6-3-9.2-3.9-3.6-.9-7.8-1.5-12.4-2l-42.5-3.5c-3.4-.5-6.3-.9-8.6-1.5-2.3-.5-4.1-1.4-5.3-2.7-1.3-1.3-1.9-3.2-1.9-5.6s.5-3.6,1.3-5c.8-1.3,2.3-2.5,4.6-3.3s5.4-1.4,9.5-1.8c4.2-.3,9.6-.6,16.1-.6s8.4.2,12.8.5c4.6.2,9.1.6,13.7.9,4.6.5,8.9.9,13,1.5,1.2.1,2.3.3,3.4.6l9.5-9.5c-3.4-.7-7.1-1.4-11.2-2-4.2-.6-8.6-1.1-13.1-1.5-4.6-.5-9-.8-13.2-1.1-4.3-.2-8.3-.3-12-.3-11.4,0-20.7.7-27.6,2.1-6.9,1.5-11.9,3.9-14.9,7-3.2,3.3-4.7,7.5-4.7,12.6s1.2,8.5,3.3,11.3c2.2,2.8,5.4,5,9.8,6.4,4.3,1.5,9.8,2.5,16.2,2.9l43.5,3.7c3.2.3,5.8.8,8.1,1.4,2.1.7,3.9,1.6,4.9,3,1.2,1.4,1.6,3.5,1.6,6.3s-.3,3.6-1.2,5c-.8,1.4-2.3,2.6-4.6,3.4-2.2.9-5.4,1.5-9.3,2-4.1.3-9.5.6-16,.6s-9.2-.1-13.9-.5c-4.8-.2-9.5-.7-14.1-1.2-4.8-.6-9.2-1.2-13.4-1.9-1.3-.1-2.5-.4-3.6-.6l-9.7,9.7c4.3.8,9.2,1.8,15.1,2.6,5.8.9,11.9,1.6,18.3,2.1,6.3.5,12.5.7,18.2.7,9.2,0,16.8-.5,22.9-1.3,6.1-.8,11-2.1,14.5-3.9,3.6-1.8,6.2-4,7.6-6.7,1.5-2.7,2.3-6,2.3-9.8s-.7-7.4-2-10Z"/>
      <path class="cls-1" d="M469.3,2c-2.7,1.3-4.9,3.3-6.5,5.7-1.8,2.5-3,5.6-3.9,9.2-.9,3.6-1.5,7.8-2,12.4l-3.5,42.5c-.5,3.4-.9,6.3-1.5,8.6-.5,2.3-1.4,4.1-2.7,5.3-1.3,1.3-3.2,1.9-5.6,1.9s-3.6-.5-5-1.3c-1.3-.8-2.5-2.3-3.3-4.6s-1.4-5.4-1.8-9.5c-.3-4.2-.6-9.6-.6-16.1s.2-8.4.5-12.8c.2-4.6.6-9.1.9-13.7.5-4.6.9-8.9,1.5-13,.1-1.2.3-2.3.6-3.4l-9.5-9.5c-.7,3.4-1.4,7.1-2,11.2-.6,4.2-1.1,8.6-1.5,13.1-.5,4.6-.8,9-1.1,13.2-.2,4.3-.3,8.3-.3,12,0,11.4.7,20.7,2.1,27.6,1.5,6.9,3.9,11.9,7,14.9,3.3,3.2,7.5,4.7,12.6,4.7s8.5-1.2,11.3-3.3c2.8-2.2,5-5.4,6.4-9.8,1.5-4.3,2.5-9.8,2.9-16.2l3.7-43.5c.3-3.2.8-5.8,1.4-8.1.7-2.1,1.6-3.9,3-4.9,1.4-1.2,3.5-1.6,6.3-1.6s3.6.3,5,1.2c1.4.8,2.6,2.3,3.4,4.6.9,2.2,1.5,5.4,2,9.3.3,4.1.6,9.5.6,16s-.1,9.2-.5,13.9c-.2,4.8-.7,9.5-1.2,14.1-.6,4.8-1.2,9.2-1.9,13.4-.1,1.3-.4,2.5-.6,3.6l9.7,9.7c.8-4.3,1.8-9.2,2.6-15.1.9-5.8,1.6-11.9,2.1-18.3.5-6.3.7-12.5.7-18.2,0-9.2-.5-16.8-1.3-22.9-.8-6.1-2.1-11-3.9-14.5-1.8-3.6-4-6.2-6.7-7.6-2.7-1.5-6-2.3-9.8-2.3s-7.4.7-10,2Z"/>
      <path class="cls-1" d="M453.8,395.1c2.7-1.3,4.9-3.3,6.5-5.7,1.8-2.5,3-5.6,3.9-9.2.9-3.6,1.5-7.8,2-12.4l3.5-42.5c.5-3.4.9-6.3,1.5-8.6.5-2.3,1.4-4.1,2.7-5.3,1.3-1.3,3.2-1.9,5.6-1.9s3.6.5,5,1.3c1.3.8,2.5,2.3,3.3,4.6s1.4,5.4,1.8,9.5c.3,4.2.6,9.6.6,16.1s-.2,8.4-.5,12.8c-.2,4.6-.6,9.1-.9,13.7-.5,4.6-.9,8.9-1.5,13-.1,1.2-.3,2.3-.6,3.4l9.5,9.5c.7-3.4,1.4-7.1,2-11.2.6-4.2,1.1-8.6,1.5-13.1.5-4.6.8-9,1.1-13.2.2-4.3.3-8.3.3-12,0-11.4-.7-20.7-2.1-27.6-1.5-6.9-3.9-11.9-7-14.9-3.3-3.2-7.5-4.7-12.6-4.7s-8.5,1.2-11.3,3.3c-2.8,2.2-5,5.4-6.4,9.8-1.5,4.3-2.5,9.8-2.9,16.2l-3.7,43.5c-.3,3.2-.8,5.8-1.4,8.1-.7,2.1-1.6,3.9-3,4.9-1.4,1.2-3.5,1.6-6.3,1.6s-3.6-.3-5-1.2c-1.4-.8-2.6-2.3-3.4-4.6-.9-2.2-1.5-5.4-2-9.3-.3-4.1-.6-9.5-.6-16s.1-9.2.5-13.9c.2-4.8.7-9.5,1.2-14.1.6-4.8,1.2-9.2,1.9-13.4.1-1.3.4-2.5.6-3.6l-9.7-9.7c-.8,4.3-1.8,9.2-2.6,15.1-.9,5.8-1.6,11.9-2.1,18.3-.5,6.3-.7,12.5-.7,18.2,0,9.2.5,16.8,1.3,22.9.8,6.1,2.1,11,3.9,14.5,1.8,3.6,4,6.2,6.7,7.6,2.7,1.5,6,2.3,9.8,2.3s7.4-.7,10-2Z"/>
      <path class="cls-1" d="M1750.3,208.8c-1.3-2.7-3.3-4.9-5.7-6.5-2.5-1.8-5.6-3-9.2-3.9-3.6-.9-7.8-1.5-12.4-2l-42.5-3.5c-3.4-.5-6.3-.9-8.6-1.5-2.3-.5-4.1-1.4-5.3-2.7-1.3-1.3-1.9-3.2-1.9-5.6s.5-3.6,1.3-5c.8-1.3,2.3-2.5,4.6-3.3s5.4-1.4,9.5-1.8c4.2-.3,9.6-.6,16.1-.6s8.4.2,12.8.5c4.6.2,9.1.6,13.7.9,4.6.5,8.9.9,13,1.5,1.2.1,2.3.3,3.4.6l9.5-9.5c-3.4-.7-7.1-1.4-11.2-2-4.2-.6-8.6-1.1-13.1-1.5-4.6-.5-9-.8-13.2-1.1-4.3-.2-8.3-.3-12-.3-11.4,0-20.7.7-27.6,2.1-6.9,1.5-11.9,3.9-14.9,7-3.2,3.3-4.7,7.5-4.7,12.6s1.2,8.5,3.3,11.3c2.2,2.8,5.4,5,9.8,6.4,4.3,1.5,9.8,2.5,16.2,2.9l43.5,3.7c3.2.3,5.8.8,8.1,1.4,2.1.7,3.9,1.6,4.9,3,1.2,1.4,1.6,3.5,1.6,6.3s-.3,3.6-1.2,5c-.8,1.4-2.3,2.6-4.6,3.4-2.2.9-5.4,1.5-9.3,2-4.1.3-9.5.6-16,.6s-9.2-.1-13.9-.5c-4.8-.2-9.5-.7-14.1-1.2-4.8-.6-9.2-1.2-13.4-1.9-1.3-.1-2.5-.4-3.6-.6l-9.7,9.7c4.3.8,9.2,1.8,15.1,2.6,5.8.9,11.9,1.6,18.3,2.1,6.3.5,12.5.7,18.2.7,9.2,0,16.8-.5,22.9-1.3,6.1-.8,11-2.1,14.5-3.9,3.6-1.8,6.2-4,7.6-6.7,1.5-2.7,2.3-6,2.3-9.8s-.7-7.4-2-10Z"/>
      <path class="cls-1" d="M1104.8,200.5c-1.3-2.7-3.3-4.9-5.7-6.5-2.5-1.8-5.6-3-9.2-3.9-3.6-.9-7.8-1.5-12.4-2l-42.5-3.5c-3.4-.5-6.3-.9-8.6-1.5-2.3-.5-4.1-1.4-5.3-2.7-1.3-1.3-1.9-3.2-1.9-5.6s.5-3.6,1.3-5c.8-1.3,2.3-2.5,4.6-3.3s5.4-1.4,9.5-1.8c4.2-.3,9.6-.6,16.1-.6s8.4.2,12.8.5c4.6.2,9.1.6,13.7.9,4.6.5,8.9.9,13,1.5,1.2.1,2.3.3,3.4.6l9.5-9.5c-3.4-.7-7.1-1.4-11.2-2-4.2-.6-8.6-1.1-13.1-1.5-4.6-.5-9-.8-13.2-1.1-4.3-.2-8.3-.3-12-.3-11.4,0-20.7.7-27.6,2.1-6.9,1.5-11.9,3.9-14.9,7-3.2,3.3-4.7,7.5-4.7,12.6s1.2,8.5,3.3,11.3c2.2,2.8,5.4,5,9.8,6.4,4.3,1.5,9.8,2.5,16.2,2.9l43.5,3.7c3.2.3,5.8.8,8.1,1.4,2.1.7,3.9,1.6,4.9,3,1.2,1.4,1.6,3.5,1.6,6.3s-.3,3.6-1.2,5c-.8,1.4-2.3,2.6-4.6,3.4-2.2.9-5.4,1.5-9.3,2-4.1.3-9.5.6-16,.6s-9.2-.1-13.9-.5c-4.8-.2-9.5-.7-14.1-1.2-4.8-.6-9.2-1.2-13.4-1.9-1.3-.1-2.5-.4-3.6-.6l-9.7,9.7c4.3.8,9.2,1.8,15.1,2.6,5.8.9,11.9,1.6,18.3,2.1,6.3.5,12.5.7,18.2.7,9.2,0,16.8-.5,22.9-1.3,6.1-.8,11-2.1,14.5-3.9,3.6-1.8,6.2-4,7.6-6.7,1.5-2.7,2.3-6,2.3-9.8s-.7-7.4-2-10Z"/>
    </g>
  </g>
</svg>