<svg xmlns="http://www.w3.org/2000/svg" width="147" height="48" fill="none"><g clip-path="url(#a)"><path fill="url(#b)" d="M24 0C10.745 0 0 10.745 0 24s10.745 24 24 24 24-10.745 24-24S37.255 0 24 0m0 44.16C12.868 44.16 3.84 35.132 3.84 24S12.868 3.84 24 3.84 44.16 12.868 44.16 24 35.132 44.16 24 44.16"/><path fill="url(#c)" d="m21.333 35.168 3.63-19.84a1.6 1.6 0 0 0-1.575-1.888h-6.346a1.6 1.6 0 0 0-1.575 1.312l-3.63 19.84a1.6 1.6 0 0 0 1.575 1.888h6.346a1.6 1.6 0 0 0 1.575-1.312"/><path fill="url(#d)" d="m25.333 24.992 1.394-7.616a4.8 4.8 0 0 1 4.722-3.936h3.676c1 0 1.753.907 1.575 1.888l-1.394 7.616a4.8 4.8 0 0 1-4.721 3.936h-3.677a1.602 1.602 0 0 1-1.575-1.888"/></g><path fill="#0F172A" d="m139.486 23.151-3.912.24a2 2 0 0 0-.431-.902 2.3 2.3 0 0 0-.873-.652q-.531-.25-1.274-.25-.993 0-1.675.42-.682.412-.682 1.104 0 .552.441.933.442.381 1.515.612l2.789.561q2.247.462 3.35 1.485t1.103 2.688q0 1.515-.892 2.658-.883 1.144-2.428 1.786-1.534.632-3.541.632-3.059 0-4.875-1.274-1.805-1.285-2.116-3.49l4.203-.222q.19.933.923 1.425.732.48 1.875.481 1.124 0 1.806-.431.692-.441.702-1.134a1.18 1.18 0 0 0-.491-.953q-.482-.38-1.485-.581l-2.668-.532q-2.257-.45-3.361-1.565-1.093-1.113-1.093-2.838 0-1.485.803-2.558.812-1.074 2.277-1.655 1.475-.582 3.45-.582 2.919 0 4.594 1.234 1.686 1.233 1.966 3.36m-23.399 11.305q-1.475 0-2.628-.512a4.23 4.23 0 0 1-1.825-1.535q-.662-1.023-.662-2.547 0-1.284.471-2.157a3.8 3.8 0 0 1 1.284-1.404 6.2 6.2 0 0 1 1.846-.803q1.043-.27 2.186-.381 1.345-.14 2.167-.26.822-.132 1.194-.382.37-.251.371-.742v-.06q0-.953-.602-1.475-.592-.521-1.685-.521-1.154 0-1.836.511a2.36 2.36 0 0 0-.903 1.264l-3.952-.321q.302-1.404 1.184-2.428.882-1.033 2.277-1.584 1.404-.562 3.25-.562 1.284 0 2.457.3 1.184.301 2.097.934a4.5 4.5 0 0 1 1.454 1.625q.532.982.532 2.357v10.392h-4.052v-2.137h-.121a4.3 4.3 0 0 1-.993 1.274 4.6 4.6 0 0 1-1.494.853q-.873.3-2.017.3zm1.224-2.95q.944 0 1.665-.37.723-.382 1.134-1.024a2.64 2.64 0 0 0 .411-1.454v-1.635a2.3 2.3 0 0 1-.552.24 10 10 0 0 1-.772.191 33 33 0 0 1-.863.15l-.782.111a5.2 5.2 0 0 0-1.314.351q-.562.24-.873.652-.31.401-.311 1.003 0 .873.632 1.334.642.452 1.625.452zm-17.558-6.248v8.907H95.48V13.622h4.152v7.854h.18q.523-1.365 1.686-2.137 1.164-.782 2.919-.782 1.605 0 2.798.702 1.204.693 1.866 1.996.672 1.294.662 3.1v9.81h-4.273v-9.048q.01-1.424-.722-2.217-.723-.792-2.026-.792-.873 0-1.545.371a2.63 2.63 0 0 0-1.043 1.083q-.372.703-.381 1.695zm-5.975-6.5v3.21h-9.279v-3.21zm-7.172-3.692h4.273V29.43q0 .592.18.923.18.32.502.451.33.13.762.13.3 0 .602-.05l.461-.09.672 3.18q-.321.1-.902.23a7.2 7.2 0 0 1-1.415.171q-1.544.06-2.708-.41-1.154-.472-1.796-1.465t-.631-2.508zM71.952 39.943a8.5 8.5 0 0 1-1.525-.13 5.6 5.6 0 0 1-1.163-.312l.963-3.19q.752.231 1.354.251.612.02 1.053-.28.451-.301.733-1.024l.25-.652-5.527-15.848h4.494l3.19 11.314h.16l3.22-11.314h4.524L77.69 35.83a7.2 7.2 0 0 1-1.174 2.167 4.8 4.8 0 0 1-1.856 1.434q-1.122.512-2.708.512m-19.999-5.778V13.622h8.105q2.337 0 3.982.893 1.645.882 2.508 2.457.873 1.565.873 3.611t-.883 3.611-2.558 2.438q-1.665.872-4.032.872h-5.166v-3.48h4.464q1.253 0 2.066-.432a2.86 2.86 0 0 0 1.224-1.213q.41-.782.41-1.796 0-1.023-.41-1.785a2.75 2.75 0 0 0-1.224-1.194q-.822-.43-2.087-.431h-2.929v16.992zm89.183-2.305v-.486h2.294v.487h-.855v2.306h-.584V31.86zm2.633-.486h.729l.769 1.876h.032l.769-1.876h.729v2.793h-.573v-1.818h-.023l-.723 1.804h-.39l-.723-1.81h-.023v1.824h-.573z"/><defs><linearGradient id="b" x1="45.011" x2="33.526" y1="1.85" y2="53.629" gradientUnits="userSpaceOnUse"><stop stop-color="#3D73F5"/><stop offset="1" stop-color="#0B49DD"/></linearGradient><linearGradient id="c" x1="24.17" x2="15.381" y1="14.328" y2="36.997" gradientUnits="userSpaceOnUse"><stop stop-color="#3D73F5"/><stop offset="1" stop-color="#0B49DD"/></linearGradient><linearGradient id="d" x1="36.015" x2="32.298" y1="13.958" y2="28.199" gradientUnits="userSpaceOnUse"><stop stop-color="#3D73F5"/><stop offset="1" stop-color="#0B49DD"/></linearGradient><clipPath id="a"><path fill="#fff" d="M0 0h48v48H0z"/></clipPath></defs></svg>